<?xml version="1.0" encoding="UTF-8" standalone="no"?>
<svg
   xmlns:dc="http://purl.org/dc/elements/1.1/"
   xmlns:cc="http://creativecommons.org/ns#"
   xmlns:rdf="http://www.w3.org/1999/02/22-rdf-syntax-ns#"
   xmlns:svg="http://www.w3.org/2000/svg"
   xmlns="http://www.w3.org/2000/svg"
   xmlns:sodipodi="http://sodipodi.sourceforge.net/DTD/sodipodi-0.dtd"
   xmlns:inkscape="http://www.inkscape.org/namespaces/inkscape"
   viewBox="0 0 624 213.6"
   version="1.1"
   id="svg86"
   sodipodi:docname="BIDS_apps_logo_black.svg"
   inkscape:version="0.92.3 (2405546, 2018-03-11)">
  <sodipodi:namedview
     pagecolor="#ffffff"
     bordercolor="#666666"
     borderopacity="1"
     objecttolerance="10"
     gridtolerance="10"
     guidetolerance="10"
     inkscape:pageopacity="0"
     inkscape:pageshadow="2"
     inkscape:window-width="1920"
     inkscape:window-height="986"
     id="namedview88"
     showgrid="false"
     inkscape:zoom="0.56089744"
     inkscape:cx="878.35694"
     inkscape:cy="-216.93682"
     inkscape:window-x="1920"
     inkscape:window-y="47"
     inkscape:window-maximized="1"
     inkscape:current-layer="svg86" />
  <metadata
     id="metadata90">
    <rdf:RDF>
      <cc:Work
         rdf:about="">
        <dc:format>image/svg+xml</dc:format>
        <dc:type
           rdf:resource="http://purl.org/dc/dcmitype/StillImage" />
        <dc:title>Ресурс 2</dc:title>
      </cc:Work>
    </rdf:RDF>
  </metadata>
  <defs
     id="defs4">
    <style
       id="style2">.cls-1{fill:#1a1a1a;}</style>
    <style
       id="style1121">.cls-1{fill:#1a1a1a;}</style>
  </defs>
  <title
     id="title6">Ресурс 2</title>
  <g
     id="g1352">
    <path
       style="fill:#1a1a1a"
       inkscape:connector-curvature="0"
       class="cls-1"
       d="m 148.47861,96.678308 v -12.21 h -48.27 a 16.35,16.35 0 0 0 -1.099997,-7.81 c -1.37,-3.24 -3.18,-7.09 -4.5,-9.81 2.73,-3.16 5.34,-7.95 4.88,-13.57 a 27.26,27.26 0 0 0 -3.62,-11.52 c 3,-5.72 7.999997,-18.19 0.86,-29.78 -5.86,-9.5399997 -15.44,-12.28999975 -20.62,-13.0699997 -7.13,-1.08 -13.76,0.17999995 -17.3,3.28 a 26.25,26.25 0 0 0 -5.39,6.5 c -5.87,-1.16 -13.91,-0.42 -19.49,7.2599997 a 22.13,22.13 0 0 0 -4,16.11 25.47,25.47 0 0 0 -15.91,22.06 28,28 0 0 0 1.49,12.77 c -7.5299996,6.44 -16.24999962,19.64 -12.2999996,38.640002 a 76.71,76.71 0 0 0 3.47,12.74 c -2.53,4.26 -6.47000002,12.36 -5.25,20.78 1,6.71 4.89,12 7.48,14.9 -1,5.81 -2.09,18.51 6.1799996,27.49 6.82,7.37 16.23,8.61 22.51,8.46 2.54,7 9.24,20 24.54,21.85 a 54.14,54.14 0 0 0 6.06,0.38 c 16.88,0 27.45,-9.2 31.57,-17.82 a 45.94,45.94 0 0 0 4.149997,-15.18 h 44.56 v -12.21 h -44.77 c -0.1,-0.69 -0.15,-1.35 -0.27,-2 -1.52,-9.6 -3.859997,-15.09 -6.339997,-18.1 a 66.62,66.62 0 0 0 2.51,-10 h 48.869997 v -12.29 h -48.45 v -0.09 a 53.7,53.7 0 0 0 -6.339997,-18.65 21.52,21.52 0 0 0 2.27,-9.130002 z m -124.169997,-41.68 c 0.7,-8.19 5.77,-11.76 9.27,-13.26 5.62,0 12.41,16 21.17,13.26 -5.32,-4.47 -8.76,-8.33 -13.89,-21.36 -0.09,-0.24 -2.46,-6.28 1.41,-11.62 3.39,-4.67 8.56,-3.52 10.71,-2.78 5.58,3.13 3,23.47 10.08,20.5 7.08,-2.97 17.58,-9 14.84,-15.34 -3.09,0.35 -9.61,12.13 -14.58,7.13 -4.17,-4.17 -3.22,-12 -2,-15.62 a 16.41,16.41 0 0 1 4.25,-5.9299997 c 0.63,-0.49 4.15,-1.67 9.39,-0.78 3.32,0.57 9.37,2.3799997 12.94,8.1899997 5.84,9.53 -2.33,21.49 -2.4,21.59 a 5.23,5.23 0 0 0 0.3,6.34 16.9,16.9 0 0 1 3.41,8.78 c 0.33,4.18 -3.94,7.49 -4,7.49 -2.63,0.44 -5.68,-5.6 -5.68,-5.6 a 27.46,27.46 0 0 0 4.14,12.08 c 0,0 3.67,7.35 5.88,12.59 0.92,2.19 0.08,5.47 -1.39,8.4 a 0.2,0.2 0 0 1 0,-0.08 c -3.44,3.74 -8.61,4.6 -12.76,1.87 -4.15,-2.73 -3.81,-5.83 -5.83,-15.72 a 38.21,38.21 0 0 0 -1,-3.86 v 0 c 0,0 -2.79,-10.84 -1.36,-16 1,-3.53 3.39,-6.75 9.64,-6.18 -3.36,-5.85 -10.46,-4.76 -13.83,-0.24 -3,4.09 -2.92,10.21 -1.89,13.16 -7,-3.83 -12.06,1.94 -12.06,1.94 0,0 6.33,0.14 10.12,4.16 1.9,2 3,4.53 3.85,12 0.85,7.47 5.6,15.51 11.48,17.51 a 27.25,27.25 0 0 0 10.69,1.44 16,16 0 0 1 -1.81,4.000002 5.23,5.23 0 0 0 0,5.8 43.79,43.79 0 0 1 6.3,17 c 0.86,6.5 -1.22,14 -2.59,18 -7.83,-1.29 -16.46,-11.92 -17.52,-19.37 a 12.54,12.54 0 0 0 -1.09,-3.96 h 0.14 c 4.87,-0.51 5.52,-14.13 5.52,-14.13 0,0 -6.55,11.54 -16.69,7.13 -5.75,-2.59 -7.18,-12.48 -7.75,-18.360002 -0.55,-5.72 3.49,-13 3.71,-13.47 -0.38,0.23 -6.64,4.09 -8.59,7.29 -1.95,3.2 -5,4.18 -11.62,2.6 -6.62,-1.58 -10.61,-14.45 -6.95,-19.67 a 5.28,5.28 0 0 0 0.28,-0.48 3.54,3.54 0 0 0 0.27,-0.32 c 2.31,-1.76 12.12,3.12 18,-2.67 -13.62,0 -19.22,-4.35 -19.22,-4.35 -0.63,-1.12 -1.73,-3.94 -1.29,-9.1 z m 66.12,134.860002 c -3.1,6.51 -12,13.47 -27,11.64 -11.62,-1.43 -15.81,-13.78 -16.77,-17.24 a 73.64,73.64 0 0 0 6.1,-8.35 114.87,114.87 0 0 1 -13.55,3.56 c -3.81,0.31 -11.69,0.23 -16.55,-5 -4.45,-4.86 -4.45,-12.18 -3.88,-16.67 6.25,2.22 12.54,1.84 17.89,-3.87 -6.23,0.19 -13.64,-1.28 -19.49,-6.27 -1.5,-1.52 -4.88,-5.37 -5.52,-10 -0.56,-3.9 0.89,-8.21 2.49,-11.49 2.65,5.58 10.86,10.21 17.36,14.31 7.26,4.59 17.35,5.56 17.77,11.75 0.94,13.28 -17.51,17.91 -17.51,17.91 6.46,-0.06 16.54,-1.52 19.65,-5.1 3.84,-0.38 10,1.44 14.8,5.08 5.92,4.5 9.08,14.44 9.08,14.44 1.62,-6.49 -2.87,-14.91 -5.73,-19.7 -2.86,-4.79 -3,-14.15 -3,-14.15 0,0 -4.31,6.12 -3.73,11.2 -1.51,-1.81 -5.34,-2.34 -8.23,-2.49 a 22.57,22.57 0 0 0 1.19,-8.89 c -0.17,-2.62 -3.37,-5.73 -7.6,-8.7 6.49,-1.85 10.89,-12.4 4.87,-14.67 0,2 -3.37,10.67 -17.28,7.47 -0.8,-0.4 -1.56,-0.76 -2.28,-1.11 a 34.41,34.41 0 0 1 -15.59,-15.16 c -0.55,-1.22 -1,-2.36 -1.48,-3.58 -0.38,-0.82 -1.51,-3.62 -3.13,-11.4 -2.13,-10.280002 0.46,-17.750002 3.74,-22.740002 -0.48,8.42 7.79,15.35 13.45,17.93 6.3,2.850002 13.2,-1.59 13.62,2.150002 0.42,3.74 2,4.72 0.57,8.89 -1.43,4.17 -10,6.16 -19.64,1.15 -0.29,9 21.22,9.6 24.52,5.73 1.16,3.74 9.33,3.74 13.07,6.75 3.74,3.01 4.87,16.34 9.31,19.94 4.44,3.6 13.78,7.6 18.65,13.34 0.14,0.15 0.25,0.28 0.36,0.42 a 51.81,51.81 0 0 1 2.25,9.59 c 1.43,8.66 0.48,16.51 -2.78,23.33 z"
       id="path66" />
    <polygon
       transform="translate(1.2086134,-1.4716917)"
       style="fill:#1a1a1a"
       class="cls-1"
       points="172.16,85.21 172.16,75.44 181.32,85.18 181.32,85.21 "
       id="polygon68" />
    <polygon
       transform="translate(1.2086134,-1.4716917)"
       style="fill:#1a1a1a"
       class="cls-1"
       points="169.03,88.34 181.32,88.34 181.32,106.07 155.47,106.07 155.47,75.44 169.03,75.44 "
       id="polygon70" />
    <polygon
       transform="translate(1.2086134,-1.4716917)"
       style="fill:#1a1a1a"
       class="cls-1"
       points="172.16,127.13 172.16,117.35 181.32,127.09 181.32,127.13 "
       id="polygon72" />
    <polygon
       transform="translate(1.2086134,-1.4716917)"
       style="fill:#1a1a1a"
       class="cls-1"
       points="169.03,130.25 181.32,130.25 181.32,147.99 155.47,147.99 155.47,117.35 169.03,117.35 "
       id="polygon74" />
    <polygon
       transform="translate(1.2086134,-1.4716917)"
       style="fill:#1a1a1a"
       class="cls-1"
       points="172.16,169.28 172.16,159.5 181.32,169.24 181.32,169.28 "
       id="polygon76" />
    <polygon
       transform="translate(1.2086134,-1.4716917)"
       style="fill:#1a1a1a"
       class="cls-1"
       points="169.03,172.4 181.32,172.4 181.32,190.13 155.47,190.13 155.47,159.5 169.03,159.5 "
       id="polygon78" />
    <path
       style="fill:#1a1a1a"
       inkscape:connector-curvature="0"
       class="cls-1"
       d="m 143.90861,28.138308 h -14.88 l -0.61,-1.85 a 2.3,2.3 0 0 0 -2.21,-1.58 h -11.17 a 2.3,2.3 0 0 0 -2.19,1.6 l -0.59,1.83 h -1.83 a 3.65,3.65 0 0 0 -3.65,3.64 v 22.06 a 3.65,3.65 0 0 0 3.65,3.69 h 33.48 a 3.63,3.63 0 0 0 3.63,-3.64 v -22.11 a 3.63,3.63 0 0 0 -3.63,-3.64 z m -34.56,5.83 2.23,-3 h 31.13 l 1.65,3 z"
       id="path80" />
    <polygon
       transform="translate(1.2086134,-1.4716917)"
       style="fill:#1a1a1a"
       class="cls-1"
       points="172.06,38.9 172.06,68.3 159.85,68.3 159.85,51.11 149.43,51.11 149.43,38.9 "
       id="polygon82" />
    <g
       transform="matrix(1.7068219,0,0,1.7068219,2813.1729,744.91938)"
       id="g1119">
      <circle
         style="fill:#ffffff;fill-opacity:1;stroke:#000000;stroke-width:0.5624007;stroke-miterlimit:4;stroke-dasharray:none;stroke-opacity:1"
         id="path1113"
         cx="-1575.6"
         cy="-351.5657"
         r="39.13063" />
      <g
         id="g1111"
         transform="matrix(0.32686488,0,0,0.32686488,-1120.499,-313.44153)">
        <path
           sodipodi:nodetypes="ccscccccccscccscscccccscscscccscscccccscscccccscscc"
           inkscape:connector-curvature="0"
           id="path1030"
           d="m -1411.8042,-33.285782 c -0.5504,-0.510072 -1.1065,-1.266789 -1.2358,-1.681591 -0.2202,-0.706341 -3.4184,-21.932999 -3.4184,-22.688045 0,-0.191016 -1.7939,-1.251735 -3.9864,-2.357159 -2.1925,-1.105421 -5.4209,-2.998017 -7.1741,-4.205764 l -3.1878,-2.195907 -11.0764,4.414259 c -10.7009,4.264676 -11.1284,4.398639 -12.6154,3.953143 -1.0672,-0.319759 -1.8295,-0.910538 -2.4865,-1.927165 -3.2423,-5.016832 -16.9622,-29.384224 -17.1319,-30.427319 -0.4216,-2.590743 -0.089,-2.956546 9.484,-10.4413 l 9.1899,-7.18493 0.012,-8.60846 0.011,-8.60847 -9.0312,-7.04278 c -4.9671,-3.87353 -9.2186,-7.39322 -9.4479,-7.82154 -1.026,-1.91713 -0.2087,-3.71923 8.6244,-19.01657 8.7555,-15.16281 9.6843,-16.45962 11.7925,-16.4637 0.4194,-8.9e-4 5.6929,1.96345 11.719,4.36504 l 10.9566,4.36653 3.1746,-2.18682 c 1.746,-1.20276 4.9744,-3.08783 7.1741,-4.18907 2.1998,-1.10123 3.9996,-2.17289 3.9996,-2.38145 0,-1.37609 3.2517,-22.14274 3.602,-23.00415 0.948,-2.33098 0.6205,-2.29438 20.5338,-2.29438 19.9137,0 19.5905,-0.0361 20.5299,2.29438 0.3376,0.83734 3.6059,21.7172 3.6059,23.03628 0,0.17252 1.7939,1.21811 3.9864,2.32353 2.1925,1.10542 5.4208,2.99802 7.1741,4.20577 l 3.1878,2.19591 11.0763,-4.41426 c 10.701,-4.26468 11.1285,-4.39864 12.6154,-3.95315 1.8714,0.56066 1.3002,-0.30063 11.4341,17.24163 8.1531,14.11333 8.9835,15.97449 7.9713,17.86576 -0.2267,0.42352 -4.4782,3.94163 -9.4479,7.81802 l -9.0358,7.04799 0.011,8.61198 0.012,8.61198 9.1899,7.18493 c 9.5739,7.485178 9.9065,7.851349 9.4831,10.4413 -0.1136,0.695444 -4.097,8.01017 -8.8519,16.254945 -8.7463,15.165866 -9.6722,16.459615 -11.7817,16.463704 -0.4194,8.9e-4 -5.6795,-1.958101 -11.6892,-4.353146 l -10.9267,-4.354621 -3.7982,2.504187 c -2.089,1.377305 -5.3308,3.249642 -7.204,4.16075 -1.8732,0.911105 -3.4058,1.81261 -3.4058,2.003344 0,1.342484 -3.2632,22.219204 -3.6059,23.069398 -0.9399,2.331688 -0.6041,2.294384 -20.6561,2.294384 h -18.3548 z"
           style="fill:#000000;stroke-width:0.39566901" />
        <circle
           style="fill:#ffffff;fill-opacity:1;stroke:#000000;stroke-width:2.24316287;stroke-miterlimit:4;stroke-dasharray:none;stroke-opacity:1"
           r="29.098629"
           cy="-116.63588"
           cx="-1392.3214"
           id="path212" />
      </g>
    </g>
  </g>
</svg>
