<?xml version="1.0" encoding="UTF-8" standalone="no"?>
<svg
   xmlns:dc="http://purl.org/dc/elements/1.1/"
   xmlns:cc="http://creativecommons.org/ns#"
   xmlns:rdf="http://www.w3.org/1999/02/22-rdf-syntax-ns#"
   xmlns:svg="http://www.w3.org/2000/svg"
   xmlns="http://www.w3.org/2000/svg"
   xmlns:sodipodi="http://sodipodi.sourceforge.net/DTD/sodipodi-0.dtd"
   xmlns:inkscape="http://www.inkscape.org/namespaces/inkscape"
   viewBox="0 0 624 213.6"
   version="1.1"
   id="svg86"
   sodipodi:docname="BIDS_apps_logo_black.svg"
   inkscape:version="0.92.3 (2405546, 2018-03-11)">
  <sodipodi:namedview
     pagecolor="#ffffff"
     bordercolor="#666666"
     borderopacity="1"
     objecttolerance="10"
     gridtolerance="10"
     guidetolerance="10"
     inkscape:pageopacity="0"
     inkscape:pageshadow="2"
     inkscape:window-width="1920"
     inkscape:window-height="986"
     id="namedview88"
     showgrid="false"
     inkscape:zoom="3.172915"
     inkscape:cx="161.44266"
     inkscape:cy="96.746191"
     inkscape:window-x="1920"
     inkscape:window-y="47"
     inkscape:window-maximized="1"
     inkscape:current-layer="svg86" />
  <metadata
     id="metadata90">
    <rdf:RDF>
      <cc:Work
         rdf:about="">
        <dc:format>image/svg+xml</dc:format>
        <dc:type
           rdf:resource="http://purl.org/dc/dcmitype/StillImage" />
        <dc:title>Ресурс 2</dc:title>
      </cc:Work>
    </rdf:RDF>
  </metadata>
  <defs
     id="defs4">
    <style
       id="style2">.cls-1{fill:#1a1a1a;}</style>
    <style
       id="style1121">.cls-1{fill:#1a1a1a;}</style>
  </defs>
  <title
     id="title6">Ресурс 2</title>
  <path
     id="path66"
     d="m 148.47861,96.678308 v -12.21 h -48.27 a 16.35,16.35 0 0 0 -1.099997,-7.81 c -1.37,-3.24 -3.18,-7.09 -4.5,-9.81 2.73,-3.16 5.34,-7.95 4.88,-13.57 a 27.26,27.26 0 0 0 -3.62,-11.52 c 3,-5.72 7.999997,-18.19 0.86,-29.78 -5.86,-9.5399997 -15.44,-12.28999975 -20.62,-13.0699997 -7.13,-1.08 -13.76,0.17999995 -17.3,3.28 a 26.25,26.25 0 0 0 -5.39,6.5 c -5.87,-1.16 -13.91,-0.42 -19.49,7.2599997 a 22.13,22.13 0 0 0 -4,16.11 25.47,25.47 0 0 0 -15.91,22.06 28,28 0 0 0 1.49,12.77 c -7.5299996,6.44 -16.24999962,19.64 -12.2999996,38.640002 a 76.71,76.71 0 0 0 3.47,12.74 c -2.53,4.26 -6.47000002,12.36 -5.25,20.78 1,6.71 4.89,12 7.48,14.9 -1,5.81 -2.09,18.51 6.1799996,27.49 6.82,7.37 16.23,8.61 22.51,8.46 2.54,7 9.24,20 24.54,21.85 a 54.14,54.14 0 0 0 6.06,0.38 c 16.88,0 27.45,-9.2 31.57,-17.82 a 45.94,45.94 0 0 0 4.149997,-15.18 h 44.56 v -12.21 h -44.77 c -0.1,-0.69 -0.15,-1.35 -0.27,-2 -1.52,-9.6 -3.859997,-15.09 -6.339997,-18.1 a 66.62,66.62 0 0 0 2.51,-10 h 48.869997 v -12.29 h -48.45 v -0.09 a 53.7,53.7 0 0 0 -6.339997,-18.65 21.52,21.52 0 0 0 2.27,-9.130002 z m -124.169997,-41.68 c 0.7,-8.19 5.77,-11.76 9.27,-13.26 5.62,0 12.41,16 21.17,13.26 -5.32,-4.47 -8.76,-8.33 -13.89,-21.36 -0.09,-0.24 -2.46,-6.28 1.41,-11.62 3.39,-4.67 8.56,-3.52 10.71,-2.78 5.58,3.13 3,23.47 10.08,20.5 7.08,-2.97 17.58,-9 14.84,-15.34 -3.09,0.35 -9.61,12.13 -14.58,7.13 -4.17,-4.17 -3.22,-12 -2,-15.62 a 16.41,16.41 0 0 1 4.25,-5.9299997 c 0.63,-0.49 4.15,-1.67 9.39,-0.78 3.32,0.57 9.37,2.3799997 12.94,8.1899997 5.84,9.53 -2.33,21.49 -2.4,21.59 a 5.23,5.23 0 0 0 0.3,6.34 16.9,16.9 0 0 1 3.41,8.78 c 0.33,4.18 -3.94,7.49 -4,7.49 -2.63,0.44 -5.68,-5.6 -5.68,-5.6 a 27.46,27.46 0 0 0 4.14,12.08 c 0,0 3.67,7.35 5.88,12.59 0.92,2.19 0.08,5.47 -1.39,8.4 a 0.2,0.2 0 0 1 0,-0.08 c -3.44,3.74 -8.61,4.6 -12.76,1.87 -4.15,-2.73 -3.81,-5.83 -5.83,-15.72 a 38.21,38.21 0 0 0 -1,-3.86 v 0 c 0,0 -2.79,-10.84 -1.36,-16 1,-3.53 3.39,-6.75 9.64,-6.18 -3.36,-5.85 -10.46,-4.76 -13.83,-0.24 -3,4.09 -2.92,10.21 -1.89,13.16 -7,-3.83 -12.06,1.94 -12.06,1.94 0,0 6.33,0.14 10.12,4.16 1.9,2 3,4.53 3.85,12 0.85,7.47 5.6,15.51 11.48,17.51 a 27.25,27.25 0 0 0 10.69,1.44 16,16 0 0 1 -1.81,4.000002 5.23,5.23 0 0 0 0,5.8 43.79,43.79 0 0 1 6.3,17 c 0.86,6.5 -1.22,14 -2.59,18 -7.83,-1.29 -16.46,-11.92 -17.52,-19.37 a 12.54,12.54 0 0 0 -1.09,-3.96 h 0.14 c 4.87,-0.51 5.52,-14.13 5.52,-14.13 0,0 -6.55,11.54 -16.69,7.13 -5.75,-2.59 -7.18,-12.48 -7.75,-18.360002 -0.55,-5.72 3.49,-13 3.71,-13.47 -0.38,0.23 -6.64,4.09 -8.59,7.29 -1.95,3.2 -5,4.18 -11.62,2.6 -6.62,-1.58 -10.61,-14.45 -6.95,-19.67 a 5.28,5.28 0 0 0 0.28,-0.48 3.54,3.54 0 0 0 0.27,-0.32 c 2.31,-1.76 12.12,3.12 18,-2.67 -13.62,0 -19.22,-4.35 -19.22,-4.35 -0.63,-1.12 -1.73,-3.94 -1.29,-9.1 z m 66.12,134.860002 c -3.1,6.51 -12,13.47 -27,11.64 -11.62,-1.43 -15.81,-13.78 -16.77,-17.24 a 73.64,73.64 0 0 0 6.1,-8.35 114.87,114.87 0 0 1 -13.55,3.56 c -3.81,0.31 -11.69,0.23 -16.55,-5 -4.45,-4.86 -4.45,-12.18 -3.88,-16.67 6.25,2.22 12.54,1.84 17.89,-3.87 -6.23,0.19 -13.64,-1.28 -19.49,-6.27 -1.5,-1.52 -4.88,-5.37 -5.52,-10 -0.56,-3.9 0.89,-8.21 2.49,-11.49 2.65,5.58 10.86,10.21 17.36,14.31 7.26,4.59 17.35,5.56 17.77,11.75 0.94,13.28 -17.51,17.91 -17.51,17.91 6.46,-0.06 16.54,-1.52 19.65,-5.1 3.84,-0.38 10,1.44 14.8,5.08 5.92,4.5 9.08,14.44 9.08,14.44 1.62,-6.49 -2.87,-14.91 -5.73,-19.7 -2.86,-4.79 -3,-14.15 -3,-14.15 0,0 -4.31,6.12 -3.73,11.2 -1.51,-1.81 -5.34,-2.34 -8.23,-2.49 a 22.57,22.57 0 0 0 1.19,-8.89 c -0.17,-2.62 -3.37,-5.73 -7.6,-8.7 6.49,-1.85 10.89,-12.4 4.87,-14.67 0,2 -3.37,10.67 -17.28,7.47 -0.8,-0.4 -1.56,-0.76 -2.28,-1.11 a 34.41,34.41 0 0 1 -15.59,-15.16 c -0.55,-1.22 -1,-2.36 -1.48,-3.58 -0.38,-0.82 -1.51,-3.62 -3.13,-11.4 -2.13,-10.280002 0.46,-17.750002 3.74,-22.740002 -0.48,8.42 7.79,15.35 13.45,17.93 6.3,2.850002 13.2,-1.59 13.62,2.150002 0.42,3.74 2,4.72 0.57,8.89 -1.43,4.17 -10,6.16 -19.64,1.15 -0.29,9 21.22,9.6 24.52,5.73 1.16,3.74 9.33,3.74 13.07,6.75 3.74,3.01 4.87,16.34 9.31,19.94 4.44,3.6 13.78,7.6 18.65,13.34 0.14,0.15 0.25,0.28 0.36,0.42 a 51.81,51.81 0 0 1 2.25,9.59 c 1.43,8.66 0.48,16.51 -2.78,23.33 z"
     class="cls-1"
     inkscape:connector-curvature="0"
     style="fill:#1a1a1a" />
  <polygon
     id="polygon68"
     points="181.32,85.18 181.32,85.21 172.16,85.21 172.16,75.44 "
     class="cls-1"
     style="fill:#1a1a1a"
     transform="translate(1.2086134,-1.4716917)" />
  <polygon
     id="polygon70"
     points="181.32,106.07 155.47,106.07 155.47,75.44 169.03,75.44 169.03,88.34 181.32,88.34 "
     class="cls-1"
     style="fill:#1a1a1a"
     transform="translate(1.2086134,-1.4716917)" />
  <polygon
     id="polygon72"
     points="181.32,127.09 181.32,127.13 172.16,127.13 172.16,117.35 "
     class="cls-1"
     style="fill:#1a1a1a"
     transform="translate(1.2086134,-1.4716917)" />
  <polygon
     id="polygon74"
     points="181.32,147.99 155.47,147.99 155.47,117.35 169.03,117.35 169.03,130.25 181.32,130.25 "
     class="cls-1"
     style="fill:#1a1a1a"
     transform="translate(1.2086134,-1.4716917)" />
  <polygon
     id="polygon76"
     points="181.32,169.24 181.32,169.28 172.16,169.28 172.16,159.5 "
     class="cls-1"
     style="fill:#1a1a1a"
     transform="translate(1.2086134,-1.4716917)" />
  <polygon
     id="polygon78"
     points="181.32,190.13 155.47,190.13 155.47,159.5 169.03,159.5 169.03,172.4 181.32,172.4 "
     class="cls-1"
     style="fill:#1a1a1a"
     transform="translate(1.2086134,-1.4716917)" />
  <path
     id="path80"
     d="m 143.90861,28.138308 h -14.88 l -0.61,-1.85 a 2.3,2.3 0 0 0 -2.21,-1.58 h -11.17 a 2.3,2.3 0 0 0 -2.19,1.6 l -0.59,1.83 h -1.83 a 3.65,3.65 0 0 0 -3.65,3.64 v 22.06 a 3.65,3.65 0 0 0 3.65,3.69 h 33.48 a 3.63,3.63 0 0 0 3.63,-3.64 v -22.11 a 3.63,3.63 0 0 0 -3.63,-3.64 z m -34.56,5.83 2.23,-3 h 31.13 l 1.65,3 z"
     class="cls-1"
     inkscape:connector-curvature="0"
     style="fill:#1a1a1a" />
  <polygon
     id="polygon82"
     points="159.85,68.3 159.85,51.11 149.43,51.11 149.43,38.9 172.06,38.9 172.06,68.3 "
     class="cls-1"
     style="fill:#1a1a1a"
     transform="translate(1.2086134,-1.4716917)" />
  <circle
     style="fill:#ffffff;fill-opacity:1;stroke:#000000;stroke-width:0.81363153;stroke-miterlimit:4;stroke-dasharray:none;stroke-opacity:1"
     id="path1113"
     cx="127.02435"
     cy="146.19647"
     r="56.610733" />
  <path
     inkscape:connector-curvature="0"
     d="m 160.21588,152.36765 7.49248,4.32485 c 0.85569,0.49385 1.25285,1.51515 0.95977,2.45875 -1.94626,6.26635 -5.26914,11.92755 -9.61508,16.62952 a 2.1125782,2.1125782 0 0 1 -2.60767,0.39628 l -7.48686,-4.32413 a 33.681873,33.681873 0 0 1 -10.68227,6.17633 v 8.64687 a 2.1115233,2.1115233 0 0 1 -1.6486,2.06019 c -6.14574,1.38014 -12.74632,1.45152 -19.20221,0.001 -0.96521,-0.21678 -1.65317,-1.07176 -1.65317,-2.06107 v -8.64722 A 33.678006,33.678006 0 0 1 105.09,171.85269 l -7.486847,4.32413 a 2.1125782,2.1125782 0 0 1 -2.60767,-0.39628 c -4.34576,-4.70197 -7.66882,-10.36317 -9.61508,-16.62952 -0.29308,-0.94342 0.10408,-1.96472 0.95977,-2.45876 l 7.49265,-4.32484 a 34.016447,34.016447 0 0 1 0,-12.34195 l -7.49248,-4.32485 c -0.85568,-0.49385 -1.25284,-1.51516 -0.95976,-2.45875 1.94625,-6.26635 5.26914,-11.92756 9.61507,-16.62952 a 2.1125782,2.1125782 0 0 1 2.60767,-0.39628 l 7.486857,4.32413 a 33.681873,33.681873 0 0 1 10.68227,-6.17633 v -8.64705 a 2.1115233,2.1115233 0 0 1 1.6486,-2.06019 c 6.14575,-1.38014 12.74632,-1.45152 19.20221,-0.001 0.96521,0.21677 1.65317,1.07176 1.65317,2.06106 v 8.64723 a 33.678006,33.678006 0 0 1 10.68227,6.17633 l 7.48686,-4.32414 a 2.1125782,2.1125782 0 0 1 2.60767,0.39629 c 4.34576,4.70196 7.66882,10.36317 9.61507,16.62952 0.29308,0.94342 -0.10408,1.96472 -0.95976,2.45875 l -7.49266,4.32484 a 34.017326,34.017326 0 0 1 0,12.34213 z m -19.12643,-6.17106 c 0,-7.7555 -6.3096,-14.0651 -14.0651,-14.0651 -7.7555,0 -14.0651,6.3096 -14.0651,14.0651 0,7.75549 6.3096,14.06509 14.0651,14.06509 7.7555,0 14.0651,-6.3096 14.0651,-14.06509 z"
     id="path2"
     style="stroke-width:0.17581376;fill:#1a1a1a;fill-opacity:1" />
</svg>
